PathFileType	4	(X/Y/Z)	32_2_100_p1_0-382.trc
DataRate	CameraRate	NumFrames	NumMarkers	Units	OrigDataRate	OrigDataStartFrame	OrigNumFrames
60.0	60.0	4	27	m	60.0	0	383
Frame#	Time	RHip			RKnee			RAnkle			RBigToe			RSmallToe			RHeel			LHip			LKnee			LAnkle			LBigToe			LSmallToe			LHeel			Neck			Head			Nose			RShoulder			RElbow			RWrist			RThumb			RIndex			RPinky			LShoulder			LElbow			LWrist			LThumb			LIndex			LPinky			
		X1	Y1	Z1	X2	Y2	Z2	X3	Y3	Z3	X4	Y4	Z4	X5	Y5	Z5	X6	Y6	Z6	X7	Y7	Z7	X8	Y8	Z8	X9	Y9	Z9	X10	Y10	Z10	X11	Y11	Z11	X12	Y12	Z12	X13	Y13	Z13	X14	Y14	Z14	X15	Y15	Z15	X16	Y16	Z16	X17	Y17	Z17	X18	Y18	Z18	X19	Y19	Z19	X20	Y20	Z20	X21	Y21	Z21	X22	Y22	Z22	X23	Y23	Z23	X24	Y24	Z24	X25	Y25	Z25	X26	Y26	Z26	X27	Y27	Z27	
0	0.0	0.340725679036237	0.49736710547904944	1.0838290465745337	0.3317814619458844	0.4669476237751036	1.5048710796283933	0.31851796165542445	0.46908916856308774	1.8882695739543063	0.3024718461416384	0.32896679619148034	1.9202069069573195	0.36308621966917454	0.3558605936451783	1.9305280207128155	0.29547387990670465	0.5694786125797495	1.994315768590485	0.1425047755556879	0.484889782626027	1.0992337790102356	0.13958437859846662	0.49853130397335543	1.4992872999849298	0.13237079187165596	0.5052446783259683	1.9338774488342196	0.14310878372385163	0.3127917994394044	1.907024890210656	0.08991270594072978	0.3782124318125922	1.93131170800487	0.14426934149666734	0.5401250468106549	1.983856595572908	0.23185701849791585	0.43074215530561605	0.521387380117876	0.23646455595055005	0.4318886716861242	0.29639353083871833	0.21012750828567217	0.357666819097122	0.40414140724459313	0.3697460287174962	0.4424689670281685	0.6124854653152628	0.4165893651219697	0.44812946618495186	0.8799653713462146	0.29054320876079126	0.29765085645511186	1.0380136368030213	0.20817704938126835	0.33353751272592047	1.1265717551186745	0.2141035175306565	0.3343109764185524	1.1546861755568059	0.2557631549501178	0.3329558089441593	1.1856463291003914	0.07607811391572021	0.4380235073952423	0.6198675766127719	0.06452404460686605	0.4113038882123771	0.8613803525465209	0.17602119893120857	0.37215654446364305	1.0657270443510507	0.25625484183963626	0.33843251248898165	1.1533071031820887	0.24876549764999842	0.3367129895804794	1.1765896466516086	0.21774658176752587	0.33912879139307395	1.1676681397695918
1	0.016666666666666666	0.3448821910123444	0.4830675936498301	1.078645844233784	0.33184619654818176	0.4668610677112456	1.5052081866382272	0.3140456705266922	0.48407368342305485	1.8981933453811053	0.3024998316492244	0.3286309053353156	1.9202291490201262	0.3679485776509682	0.3432977561919113	1.9127291501866361	0.2959584934193491	0.5674903475728117	1.998399971254468	0.1424497875115392	0.4848067576705481	1.0992298020830453	0.14005396957292596	0.49680230694091754	1.5029188612714994	0.13240943373579422	0.5052351017828357	1.933824510297685	0.14332469643556248	0.3130301860770277	1.906936752424977	0.09102308809223326	0.3911981152971028	1.9433856013261719	0.14441957897890648	0.5399001117504044	1.9839169293767274	0.23186462884577497	0.4307641030160514	0.5213341272625477	0.22982994422573055	0.4193994506898937	0.29573808257992146	0.21363288680658699	0.3594823196657044	0.4040893337710501	0.36967142607804265	0.44234281475453724	0.6124635605152997	0.4199610074327914	0.4340226311139278	0.8795465784598545	0.29050016756399116	0.2971694482625793	1.037503157144912	0.20780739669407344	0.3488380919812558	1.137125386622997	0.2134257990435685	0.33411604720499966	1.1553160977055106	0.25985744720762316	0.3369732002063613	1.191375625335589	0.07606175289512931	0.43789895884867064	0.6198394119944175	0.06428397655779079	0.4121918141895846	0.8690823245541441	0.1778136871944039	0.34826516366533206	1.056434584051917	0.2475652828665785	0.3466158147569019	1.151541225212382	0.24159248931172927	0.343199713256566	1.1767884744561028	0.21771739089786882	0.3408179788497155	1.163939583923766
2	0.03333333333333333	0.3413339980069843	0.4719202320250587	1.0748221445852952	0.3318135332170779	0.46685375218753783	1.5051902087987776	0.3149794658040242	0.4855686273766656	1.9039203403876612	0.3019919244911899	0.3303761880107833	1.9166279978898704	0.3669663453648216	0.34336036781589535	1.917118916942818	0.2965969012857395	0.5716306378613188	2.0004798161053863	0.13847080884510476	0.48347322987687397	1.0988790440481442	0.1400575779008338	0.49676618759578883	1.5029013735485581	0.13240317394417778	0.5053564914027633	1.9339433565968671	0.14325200150430611	0.31297142799739847	1.9070554526070043	0.08874753180839094	0.37893777710223214	1.93549986488367	0.14273356288781774	0.5422923202499066	1.9852351085782183	0.2318601855123687	0.4307546129332318	0.5213502405921896	0.22984546100030076	0.41943498427030734	0.2957285472950017	0.2101736559210828	0.35784349467583193	0.40398397392680796	0.36964768219667166	0.44227660268231084	0.6125219940318323	0.42030553147470445	0.4328570865380472	0.8831097150498732	0.2905029746491334	0.2971925044609233	1.037591162471584	0.21197522203664554	0.3370220589198866	1.127752767688022	0.21368833472570775	0.33358411373791164	1.1539075957911589	0.2557295435332138	0.3331268273565944	1.1826129107259782	0.07631840659287575	0.4381197950605449	0.6170001336937465	0.06473163961284986	0.41231554625795264	0.8661789981820739	0.1786128163361611	0.3457301820759408	1.0567527919295665	0.24977395378668113	0.33956565406044587	1.1551952820680718	0.24237245247360273	0.34028964410156015	1.1781946945302983	0.21731997216835433	0.3420255324247115	1.1653254950812812
3	0.05	0.3412660680235036	0.4715200442313847	1.0748225776861666	0.3308427878582913	0.4653197993101524	1.5003048137939394	0.314959056350747	0.48546866918190595	1.9039937548356012	0.2992367330823131	0.3176558941685169	1.912903250933852	0.3669122674473191	0.3432482040934373	1.9170281968113418	0.296973887467284	0.5693421230799034	2.0044354605197103	0.13826938000681718	0.4832238321748214	1.0985946497130978	0.13920620079202473	0.4968248275026913	1.5071360777385638	0.1324584890024959	0.5052098979684075	1.9338812063113222	0.14326621311253682	0.31273560002589	1.9069149471246176	0.08884815794013659	0.3787481999327389	1.9355643213426432	0.1444965011543795	0.5400169260865381	1.9839892161958201	0.2318580296696305	0.4306884107947982	0.5213706711106924	0.22986345896756333	0.419401423489119	0.29578100883383873	0.21012499071317597	0.3578087635069654	0.40401901395321044	0.3696735208709494	0.44223855946784046	0.6125353883665084	0.41997565103851664	0.4339079224641243	0.8795751388801415	0.29439902857085154	0.28502633952284506	1.0328515231882875	0.2120387984832263	0.33526584244702184	1.131312398723981	0.21390350316110968	0.33183867573682585	1.1579427781279872	0.26041840376122055	0.335557283351414	1.1868901111907149	0.07629745853814346	0.4381783864232812	0.616930172200465	0.06479893837527081	0.41227759869852787	0.8658713721533685	0.18231608765410115	0.3365020268710855	1.052227773946808	0.2533034138967602	0.3309085687292935	1.1507246938658584	0.2476785533426395	0.3362269656199558	1.175954906565947	0.22145302651764479	0.3307720383767294	1.1594265451447985
